<svg width="181" height="25" viewBox="0 0 181 25" fill="none" xmlns="http://www.w3.org/2000/svg">
<path d="M0.0780274 1.8H14.953V5.925H5.60303V8.3H13.603V12.25H5.60303V14.875H15.128V19H0.0780274V1.8ZM35.295 5.5C36.795 5.5 37.92 5.93333 38.67 6.8C39.42 7.65 39.795 8.86667 39.795 10.45V19H34.82V11.05C34.82 10.4833 34.6784 10.0333 34.395 9.7C34.1284 9.35 33.745 9.175 33.245 9.175C32.6617 9.175 32.1867 9.375 31.82 9.775C31.4534 10.175 31.27 10.6667 31.27 11.25V19H26.295V11.05C26.295 10.4833 26.1534 10.0333 25.87 9.7C25.6034 9.35 25.22 9.175 24.72 9.175C24.1367 9.175 23.6617 9.375 23.295 9.775C22.9284 10.175 22.745 10.6667 22.745 11.25V19H17.77V5.8H21.845L22.17 7.775C22.67 7.075 23.3284 6.525 24.145 6.125C24.9784 5.70833 25.8534 5.5 26.77 5.5C28.7534 5.5 30.0867 6.25833 30.77 7.775C31.2867 7.075 31.945 6.525 32.745 6.125C33.5617 5.70833 34.4117 5.5 35.295 5.5ZM51.47 5.5C53.2534 5.5 54.6284 6.08333 55.595 7.25C56.5617 8.41667 57.045 10.1417 57.045 12.425C57.045 14.6917 56.5617 16.4083 55.595 17.575C54.6284 18.725 53.2534 19.3 51.47 19.3C49.9367 19.3 48.7034 18.8 47.77 17.8V23.925H42.795V5.8H46.845L47.27 7.675C48.2367 6.225 49.6367 5.5 51.47 5.5ZM49.92 9.175C49.1867 9.175 48.6367 9.43333 48.27 9.95C47.9034 10.4667 47.72 11.1417 47.72 11.975V12.8C47.72 13.6333 47.9034 14.3167 48.27 14.85C48.6367 15.3667 49.1867 15.625 49.92 15.625C51.3534 15.625 52.07 14.7667 52.07 13.05V11.725C52.07 10.025 51.3534 9.175 49.92 9.175ZM59.6198 19V0.874999H64.5948V19H59.6198ZM74.595 5.5C76.9117 5.5 78.7284 6.09167 80.045 7.275C81.3784 8.44167 82.045 10.15 82.045 12.4C82.045 14.65 81.3784 16.3667 80.045 17.55C78.7284 18.7167 76.9117 19.3 74.595 19.3C72.2784 19.3 70.4617 18.7167 69.145 17.55C67.8284 16.3833 67.17 14.6667 67.17 12.4C67.17 10.1333 67.8284 8.41667 69.145 7.25C70.4617 6.08333 72.2784 5.5 74.595 5.5ZM74.595 8.875C72.9617 8.875 72.145 9.81667 72.145 11.7V13.125C72.145 14.9917 72.9617 15.925 74.595 15.925C76.245 15.925 77.07 14.9917 77.07 13.125V11.7C77.07 9.81667 76.245 8.875 74.595 8.875ZM93.1048 18.6C92.4215 20.45 91.5798 21.85 90.5798 22.8C89.5965 23.7667 88.2131 24.25 86.4298 24.25C85.3465 24.25 84.3881 24.1 83.5548 23.8V20.825H85.5548C86.8048 20.825 87.5465 20.2167 87.7798 19L82.5298 5.8H87.8798L90.4048 14.575H90.5798L92.9048 5.8H97.8048L93.1048 18.6ZM105.723 5.5C108.14 5.5 109.981 6.06667 111.248 7.2C112.531 8.33333 113.173 10.0667 113.173 12.4V13.25H103.273C103.273 14.2 103.481 14.9167 103.898 15.4C104.331 15.8833 105.006 16.125 105.923 16.125C106.756 16.125 107.365 15.95 107.748 15.6C108.148 15.25 108.348 14.7833 108.348 14.2H113.173C113.173 15.8 112.565 17.05 111.348 17.95C110.131 18.85 108.356 19.3 106.023 19.3C103.573 19.3 101.673 18.7333 100.323 17.6C98.9729 16.45 98.2979 14.7167 98.2979 12.4C98.2979 10.1333 98.9563 8.41667 100.273 7.25C101.59 6.08333 103.406 5.5 105.723 5.5ZM105.923 8.675C104.356 8.675 103.481 9.41667 103.298 10.9H108.148C108.148 10.2167 107.948 9.675 107.548 9.275C107.165 8.875 106.623 8.675 105.923 8.675ZM122.398 5.5C124.814 5.5 126.656 6.06667 127.923 7.2C129.206 8.33333 129.848 10.0667 129.848 12.4V13.25H119.948C119.948 14.2 120.156 14.9167 120.573 15.4C121.006 15.8833 121.681 16.125 122.598 16.125C123.431 16.125 124.039 15.95 124.423 15.6C124.823 15.25 125.023 14.7833 125.023 14.2H129.848C129.848 15.8 129.239 17.05 128.023 17.95C126.806 18.85 125.031 19.3 122.698 19.3C120.248 19.3 118.348 18.7333 116.998 17.6C115.648 16.45 114.973 14.7167 114.973 12.4C114.973 10.1333 115.631 8.41667 116.948 7.25C118.264 6.08333 120.081 5.5 122.398 5.5ZM122.598 8.675C121.031 8.675 120.156 9.41667 119.973 10.9H124.823C124.823 10.2167 124.623 9.675 124.223 9.275C123.839 8.875 123.298 8.675 122.598 8.675Z" fill="#021224"/>
<path d="M139.537 2.25195C141.262 2.25195 142.776 2.60189 144.078 3.30176C145.38 4.00163 146.389 4.97819 147.105 6.23145C147.837 7.4847 148.204 8.95768 148.204 10.6504C148.204 12.2617 147.862 13.7266 147.178 15.0449C146.495 16.347 145.518 17.3805 144.249 18.1455C142.979 18.9105 141.465 19.293 139.708 19.293C138.584 19.293 137.461 19.236 136.338 19.1221C135.232 19.0081 134.182 18.8535 133.189 18.6582V2.88672C134.198 2.72396 135.232 2.57747 136.29 2.44727C137.347 2.31706 138.43 2.25195 139.537 2.25195ZM139.61 5.42578C139.122 5.42578 138.609 5.4502 138.072 5.49902C137.535 5.54785 137.038 5.61296 136.583 5.69434V15.8506C137.071 15.9482 137.575 16.0215 138.096 16.0703C138.633 16.1029 139.138 16.1191 139.61 16.1191C140.684 16.1191 141.604 15.8913 142.369 15.4355C143.134 14.9635 143.72 14.3206 144.126 13.5068C144.533 12.693 144.737 11.7816 144.737 10.7725C144.737 9.73079 144.533 8.8112 144.126 8.01367C143.72 7.21615 143.134 6.58952 142.369 6.13379C141.604 5.66178 140.684 5.42578 139.61 5.42578ZM163.804 2.64258V5.69434H158.58V18.9268H155.21V5.69434H149.986V2.64258H163.804ZM173.545 2.64258C174.31 2.64258 175.059 2.74837 175.792 2.95996C176.524 3.17155 177.183 3.49707 177.769 3.93652C178.371 4.37598 178.843 4.92936 179.185 5.59668C179.543 6.24772 179.722 7.02897 179.722 7.94043C179.722 8.90072 179.478 9.73079 178.99 10.4307C178.518 11.1143 177.891 11.6514 177.11 12.042C176.329 12.4163 175.482 12.6361 174.571 12.7012L180.455 19H175.987L170.298 12.3105V19H166.905V2.64258H173.545ZM170.298 5.81641V9.94238C170.689 10.0726 171.12 10.1784 171.592 10.2598C172.081 10.3249 172.569 10.3574 173.057 10.3574C174.034 10.3574 174.807 10.1621 175.376 9.77148C175.962 9.36458 176.255 8.79492 176.255 8.0625C176.255 7.26497 175.946 6.69531 175.328 6.35352C174.725 5.99544 173.985 5.81641 173.106 5.81641H170.298Z" fill="#0C3257"/>
</svg>
