<?xml version="1.0" standalone="no"?>
<!DOCTYPE svg PUBLIC "-//W3C//DTD SVG 20010904//EN"
 "http://www.w3.org/TR/2001/REC-SVG-20010904/DTD/svg10.dtd">
<svg version="1.0" xmlns="http://www.w3.org/2000/svg"
 width="992.000000pt" height="330.000000pt" viewBox="0 0 992.000000 330.000000"
 preserveAspectRatio="xMidYMid meet">

<g transform="translate(0.000000,330.000000) scale(0.100000,-0.100000)"
fill="#000000" stroke="none">
<path d="M2357 3180 c-278 -35 -548 -212 -725 -476 l-60 -91 -97 -6 c-54 -4
-127 -14 -164 -23 -81 -20 -228 -87 -307 -142 -108 -73 -231 -218 -296 -347
-32 -63 -78 -207 -78 -244 0 -22 -8 -31 -38 -45 -119 -57 -276 -189 -344 -289
-111 -163 -153 -334 -128 -517 45 -328 299 -610 609 -675 128 -27 955 -39
1916 -28 508 6 871 6 873 1 11 -28 59 -69 92 -79 51 -15 102 -4 138 29 96 90
38 244 -92 244 -47 0 -100 -22 -114 -48 -14 -24 -1560 -42 -2247 -25 -540 13
-565 16 -695 78 -109 52 -232 177 -288 293 -56 114 -76 194 -76 310 0 115 26
212 84 311 52 88 174 202 278 259 151 83 138 70 146 143 16 161 109 333 254
468 135 127 301 195 497 205 55 3 110 7 123 10 15 3 43 37 87 104 119 180 260
311 416 385 140 66 208 78 439 78 189 1 212 -1 301 -25 266 -72 454 -232 609
-520 l41 -76 -21 -34 c-53 -88 14 -208 116 -208 104 0 168 81 142 178 -13 48
-43 80 -89 93 -33 10 -41 20 -78 94 -83 169 -246 360 -382 451 -92 61 -206
111 -319 141 -81 21 -122 26 -275 28 -99 2 -211 0 -248 -5z m1306 -802 c9 -11
17 -29 17 -40 0 -25 -44 -68 -70 -68 -29 0 -60 35 -60 68 1 66 69 91 113 40z
m37 -1980 c27 -29 26 -73 -2 -92 -48 -34 -108 -8 -108 46 0 60 70 89 110 46z"/>
<path d="M4935 2756 c-23 -35 -18 -362 5 -376 8 -5 95 -10 192 -10 226 0 211
-16 206 213 -2 120 -7 168 -17 180 -12 15 -38 17 -192 17 -178 0 -179 0 -194
-24z"/>
<path d="M4291 2676 c-8 -9 -11 -52 -9 -127 l3 -114 128 -3 127 -3 0 125 c0
104 -3 125 -16 130 -9 3 -62 6 -119 6 -75 0 -106 -4 -114 -14z"/>
<path d="M4117 2284 c-13 -13 -8 -229 5 -242 18 -18 222 -16 237 2 8 9 11 52
9 127 l-3 114 -121 3 c-66 1 -123 -1 -127 -4z"/>
<path d="M3874 2017 c-3 -8 -4 -41 -2 -73 l3 -59 73 -3 73 -3 -3 73 -3 73 -68
3 c-51 2 -69 -1 -73 -11z"/>
<path d="M8988 2009 c-64 -9 -142 -45 -175 -81 -37 -39 -56 -98 -62 -193 l-6
-90 -52 -3 -53 -3 0 -75 0 -74 55 0 55 0 0 -380 0 -380 90 0 90 0 0 380 0 379
88 3 87 3 3 73 3 72 -85 0 c-50 0 -88 4 -91 11 -4 6 -4 40 0 76 9 86 40 123
108 130 l47 6 0 78 c0 90 8 84 -102 68z"/>
<path d="M6873 1885 c-162 -45 -243 -138 -251 -290 -6 -104 9 -156 61 -212 59
-64 105 -87 267 -134 170 -48 206 -65 250 -115 30 -35 32 -41 28 -98 -6 -99
-65 -153 -178 -163 -113 -11 -191 32 -226 123 l-17 44 -98 0 c-55 0 -99 -4
-99 -8 0 -4 7 -34 15 -66 35 -135 152 -224 321 -245 198 -25 366 49 442 194
24 44 27 62 27 145 0 109 -17 154 -80 208 -52 46 -92 64 -260 117 -227 71
-265 100 -265 202 0 97 71 156 185 155 34 0 77 -7 96 -15 46 -19 96 -70 104
-107 l7 -30 104 0 104 0 -7 33 c-20 108 -103 206 -208 247 -77 29 -244 37
-322 15z"/>
<path d="M1680 1310 l0 -580 90 0 90 0 0 255 c0 140 3 255 8 255 4 0 106 -115
227 -255 l220 -255 117 0 c65 0 118 2 118 4 0 3 -113 132 -250 287 -216 243
-248 284 -238 298 16 20 364 423 437 505 l53 61 -108 3 c-59 1 -113 1 -119 -2
-7 -2 -56 -57 -111 -122 -54 -64 -147 -174 -205 -243 -59 -69 -116 -135 -128
-145 l-21 -19 0 266 0 267 -90 0 -90 0 0 -580z"/>
<path d="M9308 1758 l-3 -113 -53 -3 -53 -3 3 -72 3 -72 53 -3 52 -3 0 -283
c0 -330 6 -364 70 -419 54 -46 98 -57 229 -57 l111 0 0 74 0 74 -91 4 c-136 5
-129 -13 -129 329 l0 279 110 0 110 0 0 75 0 75 -110 0 -110 0 0 115 0 115
-95 0 -94 0 -3 -112z"/>
<path d="M4189 1647 c-50 -14 -128 -57 -149 -81 -21 -27 -30 -18 -30 29 l0 45
-90 0 -90 0 0 -455 0 -455 90 0 90 0 0 278 c0 226 3 289 16 333 56 190 334
216 426 40 l28 -53 0 -299 0 -299 95 0 94 0 3 303 c3 302 3 303 29 352 48 94
163 136 280 102 62 -18 108 -60 136 -122 15 -35 18 -79 21 -337 l4 -298 89 0
90 0 -3 328 c-3 314 -4 329 -26 385 -27 65 -98 144 -158 175 -58 29 -155 46
-230 39 -94 -9 -175 -49 -233 -114 l-48 -54 -64 63 c-43 42 -80 69 -114 81
-64 24 -196 31 -256 14z"/>
<path d="M5840 1642 c-85 -22 -143 -58 -207 -124 -88 -94 -123 -188 -123 -333
0 -146 35 -240 126 -336 200 -208 569 -175 729 66 61 92 77 159 73 295 -4 104
-7 122 -36 183 -37 80 -121 172 -190 210 -102 55 -250 71 -372 39z m219 -158
c74 -21 144 -88 172 -163 17 -46 20 -72 17 -151 -3 -82 -8 -102 -33 -148 -107
-196 -374 -202 -480 -11 -29 52 -30 60 -30 174 0 116 1 122 31 175 65 116 190
164 323 124z"/>
<path d="M7935 1646 c-111 -27 -213 -99 -274 -194 -37 -58 -71 -183 -71 -261
0 -78 25 -186 57 -249 33 -65 120 -148 193 -183 238 -115 529 -17 640 216 111
233 15 533 -203 635 -104 49 -233 63 -342 36z m257 -183 c96 -52 142 -143 143
-278 0 -79 -4 -97 -28 -147 -79 -161 -264 -215 -406 -120 -77 52 -121 149
-121 267 0 158 77 272 205 306 56 15 152 2 207 -28z"/>
<path d="M2730 1357 c0 -162 5 -309 11 -343 22 -118 89 -213 186 -262 55 -28
156 -45 224 -37 67 8 163 51 198 89 14 14 28 26 33 26 4 0 8 -22 8 -50 l0 -50
90 0 90 0 0 455 0 455 -90 0 -90 0 0 -252 c0 -139 -5 -280 -10 -313 -21 -129
-103 -200 -230 -200 -90 0 -153 33 -195 100 l-30 48 -3 309 -3 308 -95 0 -94
0 0 -283z"/>
<path d="M6776 488 c-9 -12 -16 -30 -16 -39 0 -9 -7 -19 -15 -23 -8 -3 -15
-10 -15 -16 0 -5 7 -10 15 -10 12 0 15 -17 15 -95 0 -77 3 -95 15 -95 11 0 15
19 17 93 3 87 4 92 26 95 27 4 30 22 3 22 -11 0 -23 5 -26 10 -10 17 5 49 26
55 27 9 24 25 -5 25 -14 0 -32 -10 -40 -22z"/>
<path d="M9007 503 c-14 -13 -6 -33 13 -33 13 0 20 7 20 20 0 19 -20 27 -33
13z"/>
<path d="M5260 355 c0 -122 2 -145 15 -145 13 0 15 23 15 145 0 122 -2 145
-15 145 -13 0 -15 -23 -15 -145z"/>
<path d="M6040 445 l0 -54 -35 20 c-62 37 -124 11 -145 -61 -21 -75 23 -140
95 -140 26 0 48 6 55 15 16 19 30 19 30 0 0 -8 7 -15 15 -15 13 0 15 23 15
145 0 122 -2 145 -15 145 -12 0 -15 -13 -15 -55z m-25 -70 c49 -48 17 -145
-48 -145 -13 0 -36 9 -51 21 -34 27 -37 98 -6 129 28 28 75 26 105 -5z"/>
<path d="M9280 445 c0 -30 -3 -55 -6 -55 -3 0 -17 9 -31 20 -14 11 -38 20 -54
20 -38 0 -87 -44 -95 -85 -8 -42 11 -100 39 -120 27 -19 87 -19 113 0 25 19
34 19 34 0 0 -8 7 -15 15 -15 13 0 15 23 15 145 0 122 -2 145 -15 145 -12 0
-15 -13 -15 -55z m-33 -60 c45 -32 37 -121 -13 -144 -36 -16 -50 -14 -81 13
-37 32 -39 99 -4 127 28 23 69 24 98 4z"/>
<path d="M5023 479 c-101 -29 -123 -186 -34 -246 46 -31 116 -31 161 0 19 12
35 28 38 35 6 19 -33 14 -52 -7 -44 -48 -135 -29 -161 33 -8 20 -15 46 -15 58
0 35 34 83 69 97 39 17 97 7 114 -19 12 -20 47 -28 47 -12 0 16 -47 53 -81 62
-39 11 -43 11 -86 -1z"/>
<path d="M6313 483 c-26 -5 -63 -48 -63 -72 0 -32 31 -61 82 -76 81 -24 96
-47 58 -85 -26 -26 -64 -26 -91 1 -11 11 -28 19 -37 17 -14 -3 -13 -8 10 -31
49 -49 147 -32 162 29 11 41 -16 71 -80 90 -40 11 -58 23 -66 40 -24 51 57 88
97 44 17 -18 45 -27 45 -14 0 26 -61 69 -89 63 -3 -1 -16 -4 -28 -6z"/>
<path d="M3920 475 c0 -3 18 -41 40 -85 31 -61 40 -91 40 -130 0 -38 4 -50 15
-50 11 0 15 12 15 51 0 42 8 66 46 135 40 73 43 84 27 84 -14 0 -28 -18 -48
-61 -16 -33 -33 -63 -37 -65 -4 -3 -22 24 -40 61 -18 36 -38 65 -45 65 -7 0
-13 -2 -13 -5z"/>
<path d="M6890 456 c0 -13 -8 -27 -17 -31 -17 -6 -17 -7 0 -19 13 -11 17 -28
17 -89 0 -55 4 -80 16 -91 17 -18 74 -22 74 -6 0 6 -8 10 -19 10 -32 0 -42 24
-39 97 3 66 4 68 31 71 28 3 33 26 6 28 -35 2 -39 5 -39 29 0 16 -6 25 -15 25
-9 0 -15 -9 -15 -24z"/>
<path d="M8150 345 c0 -113 2 -135 15 -135 12 0 15 13 15 55 l0 55 34 0 c100
0 148 78 86 140 -16 16 -34 20 -85 20 l-65 0 0 -135z m124 102 c21 -16 24 -60
6 -82 -8 -9 -29 -15 -56 -15 l-44 0 0 55 0 55 38 0 c21 0 46 -6 56 -13z"/>
<path d="M4208 415 c-32 -18 -58 -63 -58 -100 0 -34 25 -82 49 -95 29 -15 98
-12 126 6 51 33 57 130 11 173 -31 29 -92 36 -128 16z m105 -32 c59 -67 0
-175 -81 -147 -51 18 -66 101 -26 145 22 25 85 25 107 2z"/>
<path d="M4426 423 c-3 -3 -6 -41 -6 -83 0 -63 4 -82 21 -104 23 -29 73 -35
112 -15 16 9 22 9 25 0 2 -6 10 -11 18 -11 12 0 14 19 12 108 -3 125 -21 144
-28 31 -6 -85 -25 -119 -67 -119 -45 0 -63 32 -63 114 0 69 -8 95 -24 79z"/>
<path d="M4680 320 c0 -91 3 -110 15 -110 12 0 15 16 15 80 0 79 1 81 30 98
16 9 30 23 30 30 0 16 -11 15 -37 -3 -19 -13 -22 -13 -27 0 -3 8 -10 15 -16
15 -6 0 -10 -41 -10 -110z"/>
<path d="M5398 415 c-53 -30 -72 -99 -43 -155 20 -38 43 -50 98 -50 135 0 145
201 10 216 -23 3 -49 -2 -65 -11z m105 -33 c65 -71 -10 -186 -92 -142 -25 13
-45 64 -37 95 15 60 92 88 129 47z"/>
<path d="M5614 416 c-3 -9 -4 -49 -2 -90 4 -92 21 -116 83 -116 22 0 47 6 54
13 11 9 14 9 18 0 3 -7 11 -13 19 -13 12 0 14 19 12 108 -4 127 -21 140 -28
21 -5 -87 -19 -109 -67 -109 -43 0 -63 36 -63 116 0 69 -13 104 -26 70z"/>
<path d="M6534 411 c-43 -26 -61 -80 -45 -132 15 -49 44 -69 102 -69 76 0 120
56 105 133 -13 72 -100 108 -162 68z m115 -37 c53 -67 -4 -160 -85 -140 -37
10 -59 66 -44 112 13 40 33 53 77 54 22 0 38 -8 52 -26z"/>
<path d="M7015 403 c3 -16 18 -65 32 -110 34 -112 52 -112 84 -3 12 44 26 80
30 80 5 0 13 -19 19 -42 27 -103 33 -118 50 -118 13 0 25 26 49 106 31 100 34
139 7 103 -6 -9 -20 -51 -30 -93 -11 -42 -22 -76 -26 -76 -4 0 -15 36 -25 80
-18 79 -37 113 -54 94 -4 -5 -19 -46 -31 -91 -13 -46 -26 -83 -30 -83 -3 0
-11 21 -18 48 -7 26 -17 63 -23 83 -11 45 -45 66 -34 22z"/>
<path d="M7387 410 c-51 -41 -56 -128 -9 -175 29 -29 101 -35 122 -10 7 8 16
15 21 15 5 0 9 -7 9 -15 0 -8 7 -15 15 -15 12 0 15 18 15 104 0 64 -4 107 -11
111 -6 4 -13 -2 -16 -14 -5 -20 -23 -30 -23 -13 0 12 -46 32 -74 32 -13 0 -35
-9 -49 -20z m118 -35 c68 -67 -17 -184 -93 -128 -37 27 -43 102 -13 132 29 29
76 27 106 -4z"/>
<path d="M7630 320 c0 -90 3 -110 15 -110 11 0 15 18 17 82 3 86 5 89 63 112
6 2 5 9 -2 17 -10 10 -16 9 -34 -7 -19 -17 -21 -18 -30 -1 -21 38 -29 13 -29
-93z"/>
<path d="M7820 417 c-36 -18 -64 -79 -55 -124 10 -53 45 -83 98 -83 43 0 97
28 97 51 0 15 -20 10 -47 -11 -14 -11 -36 -20 -49 -20 -29 0 -64 33 -64 60 0
18 7 20 85 20 85 0 85 0 85 26 0 36 -16 61 -50 79 -35 18 -67 19 -100 2z m100
-37 c38 -38 27 -50 -50 -50 -59 0 -70 3 -70 17 0 49 81 72 120 33z"/>
<path d="M8380 318 c0 -89 3 -108 15 -108 12 0 15 15 15 71 0 81 9 104 45 113
26 7 32 20 14 31 -5 4 -18 0 -28 -9 -21 -19 -31 -20 -31 -3 0 8 -7 14 -15 14
-12 0 -15 -19 -15 -109z"/>
<path d="M8563 411 c-36 -23 -47 -53 -44 -122 3 -76 118 -108 180 -50 26 24
31 36 31 75 0 91 -92 144 -167 97z m116 -37 c63 -80 -33 -191 -106 -122 -28
26 -32 91 -7 126 23 33 86 31 113 -4z"/>
<path d="M8760 425 c0 -2 18 -52 41 -110 36 -93 44 -106 62 -103 17 2 29 23
59 98 40 102 44 120 27 120 -10 0 -30 -42 -63 -132 -10 -27 -21 -48 -26 -48
-5 0 -20 35 -34 78 -15 42 -30 82 -34 87 -7 10 -32 18 -32 10z"/>
<path d="M9016 423 c-3 -3 -6 -53 -6 -110 0 -85 3 -103 15 -103 12 0 15 18 15
104 0 96 -7 126 -24 109z"/>
<path d="M9430 423 c-73 -27 -92 -132 -35 -189 34 -34 103 -34 142 0 29 25 25
49 -5 28 -36 -26 -62 -34 -86 -28 -28 7 -61 49 -51 66 3 5 43 10 91 10 77 0
84 2 84 20 0 68 -74 117 -140 93z m76 -31 c11 -7 34 -45 34 -56 0 -3 -34 -6
-75 -6 -41 0 -75 4 -75 9 0 4 9 20 21 35 20 26 69 36 95 18z"/>
<path d="M9627 423 c-4 -3 -7 -53 -7 -110 0 -85 3 -103 15 -103 12 0 15 14 15
70 0 62 3 74 25 95 13 14 29 25 35 25 5 0 10 7 10 15 0 19 -11 19 -36 0 -25
-19 -34 -19 -34 0 0 16 -12 20 -23 8z"/>
<path d="M9765 240 c-8 -14 3 -30 21 -30 8 0 14 9 14 20 0 21 -24 28 -35 10z"/>
</g>
</svg>
